{
  "accessors": [
    {
      "bufferView": 2,
      "componentType": 5126,
      "count": 3071,
      "max": [
        0.04711045324802399,
        0.047264814376831055,
        0.018439121544361115
      ],
      "min": [
        -0.046866510063409805,
        -0.04685148596763611,
        -0.020157039165496826
      ],
      "type": "VEC3"
    },
    {
      "bufferView": 2,
      "byteOffset": 36852,
      "componentType": 5126,
      "count": 3071,
      "max": [
        0.9995869994163513,
        0.9997591376304626,
        0.9999524354934692
      ],
      "min": [
        -0.9999889731407166,
        -0.9998230338096619,
        -0.999994158744812
      ],
      "type": "VEC3"
    },
    {
      "bufferView": 3,
      "componentType": 5126,
      "count": 3071,
      "max": [
        0.995459794998169,
        0.9635899662971497,
        0.9996735453605652,
        1.0
      ],
      "min": [
        -0.9633626341819763,
        -0.9444175362586975,
        -0.9997479915618896,
        1.0
      ],
      "type": "VEC4"
    },
    {
      "bufferView": 1,
      "componentType": 5126,
      "count": 3071,
      "max": [
        0.970512330532074,
        0.9973546266555786
      ],
      "min": [
        0.0026453137397766113,
        0.0026453137397766113
      ],
      "type": "VEC2"
    },
    {
      "bufferView": 1,
      "byteOffset": 24568,
      "componentType": 5126,
      "count": 3071,
      "max": [
        0.970512330532074,
        0.9973546266555786
      ],
      "min": [
        0.0026453137397766113,
        0.0026453137397766113
      ],
      "type": "VEC2"
    },
    {
      "bufferView": 0,
      "componentType": 5125,
      "count": 15360,
      "type": "SCALAR"
    },
    {
      "bufferView": 2,
      "byteOffset": 73704,
      "componentType": 5126,
      "count": 47962,
      "max": [
        0.049890678375959396,
        0.05005135387182236,
        0.023568248376250267
      ],
      "min": [
        -0.050231531262397766,
        -0.04944033548235893,
        -0.010818899609148502
      ],
      "type": "VEC3"
    },
    {
      "bufferView": 2,
      "byteOffset": 649248,
      "componentType": 5126,
      "count": 47962,
      "max": [
        0.9999877214431763,
        0.999649703502655,
        0.9999939203262329
      ],
      "min": [
        -0.9999850392341614,
        -0.9999447464942932,
        -0.9999953508377075
      ],
      "type": "VEC3"
    },
    {
      "bufferView": 3,
      "byteOffset": 49136,
      "componentType": 5126,
      "count": 47962,
      "max": [
        0.9915597438812256,
        0.9997785687446594,
        0.9999183416366577,
        1.0
      ],
      "min": [
        -0.9990726113319397,
        -0.9997552633285522,
        -0.9999914169311523,
        -1.0
      ],
      "type": "VEC4"
    },
    {
      "bufferView": 1,
      "byteOffset": 49136,
      "componentType": 5126,
      "count": 47962,
      "max": [
        0.9910299181938171,
        0.9767186045646667
      ],
      "min": [
        0.00810087751597166,
        0.008100882172584534
      ],
      "type": "VEC2"
    },
    {
      "bufferView": 1,
      "byteOffset": 432832,
      "componentType": 5126,
      "count": 47962,
      "max": [
        0.9910299181938171,
        0.9767186045646667
      ],
      "min": [
        0.00810087751597166,
        0.008100882172584534
      ],
      "type": "VEC2"
    },
    {
      "bufferView": 0,
      "byteOffset": 61440,
      "componentType": 5125,
      "count": 264384,
      "type": "SCALAR"
    },
    {
      "bufferView": 2,
      "byteOffset": 1224792,
      "componentType": 5126,
      "count": 43113,
      "max": [
        0.04905784875154495,
        0.04774684086441994,
        0.025211628526449203
      ],
      "min": [
        -0.05052873119711876,
        -0.049657873809337616,
        0.0057492912746965885
      ],
      "type": "VEC3"
    },
    {
      "bufferView": 2,
      "byteOffset": 1742148,
      "componentType": 5126,
      "count": 43113,
      "max": [
        0.9999828338623047,
        0.9997762441635132,
        0.9999722242355347
      ],
      "min": [
        -0.9997613430023193,
        -0.9999632835388184,
        -0.999974250793457
      ],
      "type": "VEC3"
    },
    {
      "bufferView": 1,
      "byteOffset": 816528,
      "componentType": 5126,
      "count": 43113,
      "max": [
        0.9918991327285767,
        0.9915743470191956
      ],
      "min": [
        0.023819245398044586,
        0.008100880309939384
      ],
      "type": "VEC2"
    },
    {
      "bufferView": 0,
      "byteOffset": 1118976,
      "componentType": 5125,
      "count": 170304,
      "type": "SCALAR"
    },
    {
      "bufferView": 2,
      "byteOffset": 2259504,
      "componentType": 5126,
      "count": 65532,
      "max": [
        0.049252767115831375,
        0.035071153193712234,
        0.02513734996318817
      ],
      "min": [
        -0.051310621201992035,
        -0.04452845826745033,
        0.0009642317891120911
      ],
      "type": "VEC3"
    },
    {
      "bufferView": 2,
      "byteOffset": 3045888,
      "componentType": 5126,
      "count": 65532,
      "max": [
        0.999699056148529,
        0.9999982714653015,
        0.9999943375587463
      ],
      "min": [
        -0.9989105463027954,
        -0.9999866485595703,
        -0.9999962449073792
      ],
      "type": "VEC3"
    },
    {
      "bufferView": 3,
      "byteOffset": 816528,
      "componentType": 5126,
      "count": 65532,
      "max": [
        0.9931231141090393,
        0.9999993443489075,
        0.9998604655265808,
        1.0
      ],
      "min": [
        -0.9999797344207764,
        -0.9999879598617554,
        -0.9999186396598816,
        -1.0
      ],
      "type": "VEC4"
    },
    {
      "bufferView": 1,
      "byteOffset": 1161432,
      "componentType": 5126,
      "count": 65532,
      "max": [
        1.0,
        0.9841521978378296
      ],
      "min": [
        0.0,
        0.0
      ],
      "type": "VEC2"
    },
    {
      "bufferView": 1,
      "byteOffset": 1685688,
      "componentType": 5126,
      "count": 65532,
      "max": [
        1.0,
        0.9841521978378296
      ],
      "min": [
        0.0,
        0.0
      ],
      "type": "VEC2"
    },
    {
      "bufferView": 0,
      "byteOffset": 1800192,
      "componentType": 5125,
      "count": 352881,
      "type": "SCALAR"
    },
    {
      "bufferView": 2,
      "byteOffset": 3832272,
      "componentType": 5126,
      "count": 4572,
      "max": [
        0.04712474346160889,
        0.03479224443435669,
        0.025134578347206116
      ],
      "min": [
        -0.05134452134370804,
        -0.0419711135327816,
        0.001629360020160675
      ],
      "type": "VEC3"
    },
    {
      "bufferView": 2,
      "byteOffset": 3887136,
      "componentType": 5126,
      "count": 4572,
      "max": [
        0.970066487789154,
        0.9998506307601929,
        0.9999438524246216
      ],
      "min": [
        -0.9998427033424377,
        -0.9997622966766357,
        -0.9995517730712891
      ],
      "type": "VEC3"
    },
    {
      "bufferView": 3,
      "byteOffset": 1865040,
      "componentType": 5126,
      "count": 4572,
      "max": [
        0.9873815178871155,
        0.9999575614929199,
        0.9969738125801086,
        1.0
      ],
      "min": [
        -0.956329345703125,
        -0.999582052230835,
        -0.9999361038208008,
        -1.0
      ],
      "type": "VEC4"
    },
    {
      "bufferView": 1,
      "byteOffset": 2209944,
      "componentType": 5126,
      "count": 4572,
      "max": [
        0.9978803992271423,
        0.9988049268722534
      ],
      "min": [
        0.028127893805503845,
        0.00578482449054718
      ],
      "type": "VEC2"
    },
    {
      "bufferView": 1,
      "byteOffset": 2246520,
      "componentType": 5126,
      "count": 4572,
      "max": [
        0.9978803992271423,
        0.9988049268722534
      ],
      "min": [
        0.028127893805503845,
        0.00578482449054718
      ],
      "type": "VEC2"
    },
    {
      "bufferView": 0,
      "byteOffset": 3211716,
      "componentType": 5125,
      "count": 21135,
      "type": "SCALAR"
    }
  ],
  "asset": {
    "extras": {
      "author": "Jimmizi (https://sketchfab.com/Jimmizi)",
      "license": "CC-BY-4.0 (http://creativecommons.org/licenses/by/4.0/)",
      "source": "https://sketchfab.com/3d-models/classic-blender-donut-c0997ff7ad7a4f78b57258e502a42c92",
      "title": "Classic Blender Donut"
    },
    "generator": "Sketchfab-13.76.0",
    "version": "2.0"
  },
  "bufferViews": [
    {
      "buffer": 0,
      "byteLength": 3296256,
      "name": "floatBufferViews",
      "target": 34963
    },
    {
      "buffer": 0,
      "byteLength": 2283096,
      "byteOffset": 3296256,
      "byteStride": 8,
      "name": "floatBufferViews",
      "target": 34962
    },
    {
      "buffer": 0,
      "byteLength": 3942000,
      "byteOffset": 5579352,
      "byteStride": 12,
      "name": "floatBufferViews",
      "target": 34962
    },
    {
      "buffer": 0,
      "byteLength": 1938192,
      "byteOffset": 9521352,
      "byteStride": 16,
      "name": "floatBufferViews",
      "target": 34962
    }
  ],
  "buffers": [
    {
      "byteLength": 11459544,
      "uri": "scene.bin"
    }
  ],
  "images": [
    {
      "uri": "textures/DonutMat_baseColor.png"
    },
    {
      "uri": "textures/DonutMat_normal.png"
    },
    {
      "uri": "textures/IcingMat_baseColor.png"
    },
    {
      "uri": "textures/IcingMat_normal.png"
    },
    {
      "uri": "textures/Sprinkles_baseColor.png"
    },
    {
      "uri": "textures/DrizzleMat_baseColor.png"
    },
    {
      "uri": "textures/DrizzleMat_normal.png"
    }
  ],
  "materials": [
    {
      "doubleSided": true,
      "name": "DonutMat",
      "normalTexture": {
        "index": 1
      },
      "pbrMetallicRoughness": {
        "baseColorTexture": {
          "index": 0
        },
        "metallicFactor": 0.0,
        "roughnessFactor": 0.8823410972037403
      }
    },
    {
      "doubleSided": true,
      "name": "IcingMat",
      "normalTexture": {
        "index": 3
      },
      "pbrMetallicRoughness": {
        "baseColorTexture": {
          "index": 2
        },
        "metallicFactor": 0.0,
        "roughnessFactor": 0.9446488680367062
      }
    },
    {
      "doubleSided": true,
      "name": "Sprinkles",
      "pbrMetallicRoughness": {
        "baseColorTexture": {
          "index": 4
        },
        "metallicFactor": 0.0,
        "roughnessFactor": 0.8818412952295746
      }
    },
    {
      "doubleSided": true,
      "name": "DrizzleMat",
      "normalTexture": {
        "index": 6,
        "texCoord": 1
      },
      "pbrMetallicRoughness": {
        "baseColorTexture": {
          "index": 5
        },
        "metallicFactor": 0.0,
        "roughnessFactor": 0.8376047051644817
      }
    }
  ],
  "meshes": [
    {
      "name": "Donut_DonutMat_0",
      "primitives": [
        {
          "attributes": {
            "NORMAL": 1,
            "POSITION": 0,
            "TANGENT": 2,
            "TEXCOORD_0": 3,
            "TEXCOORD_1": 4
          },
          "indices": 5,
          "material": 0,
          "mode": 4
        }
      ]
    },
    {
      "name": "Donut_IcingMat_0",
      "primitives": [
        {
          "attributes": {
            "NORMAL": 7,
            "POSITION": 6,
            "TANGENT": 8,
            "TEXCOORD_0": 9,
            "TEXCOORD_1": 10
          },
          "indices": 11,
          "material": 1,
          "mode": 4
        }
      ]
    },
    {
      "name": "Donut_Sprinkles_0",
      "primitives": [
        {
          "attributes": {
            "NORMAL": 13,
            "POSITION": 12,
            "TEXCOORD_0": 14
          },
          "indices": 15,
          "material": 2,
          "mode": 4
        }
      ]
    },
    {
      "name": "Donut_DrizzleMat_0",
      "primitives": [
        {
          "attributes": {
            "NORMAL": 17,
            "POSITION": 16,
            "TANGENT": 18,
            "TEXCOORD_0": 19,
            "TEXCOORD_1": 20
          },
          "indices": 21,
          "material": 3,
          "mode": 4
        }
      ]
    },
    {
      "name": "Donut_DrizzleMat_0",
      "primitives": [
        {
          "attributes": {
            "NORMAL": 23,
            "POSITION": 22,
            "TANGENT": 24,
            "TEXCOORD_0": 25,
            "TEXCOORD_1": 26
          },
          "indices": 27,
          "material": 3,
          "mode": 4
        }
      ]
    }
  ],
  "nodes": [
    {
      "children": [
        1
      ],
      "matrix": [
        1.0,
        0.0,
        0.0,
        0.0,
        0.0,
        2.220446049250313e-16,
        -1.0,
        0.0,
        0.0,
        1.0,
        2.220446049250313e-16,
        0.0,
        0.0,
        0.0,
        0.0,
        1.0
      ],
      "name": "Sketchfab_model"
    },
    {
      "children": [
        2
      ],
      "matrix": [
        0.009999999776482582,
        0.0,
        0.0,
        0.0,
        0.0,
        0.0,
        0.009999999776482582,
        0.0,
        0.0,
        -0.009999999776482582,
        0.0,
        0.0,
        0.0,
        0.0,
        0.0,
        1.0
      ],
      "name": "donut.fbx"
    },
    {
      "children": [
        3
      ],
      "name": "RootNode"
    },
    {
      "children": [
        4,
        5,
        6,
        7,
        8
      ],
      "matrix": [
        100.0,
        0.0,
        0.0,
        0.0,
        0.0,
        -1.629206793918314e-05,
        -99.99999999999868,
        0.0,
        0.0,
        99.99999999999868,
        -1.629206793918314e-05,
        0.0,
        0.0,
        0.0,
        0.0,
        1.0
      ],
      "name": "Donut"
    },
    {
      "mesh": 0,
      "name": "Donut_DonutMat_0"
    },
    {
      "mesh": 1,
      "name": "Donut_IcingMat_0"
    },
    {
      "mesh": 2,
      "name": "Donut_Sprinkles_0"
    },
    {
      "mesh": 3,
      "name": "Donut_DrizzleMat_0"
    },
    {
      "mesh": 4,
      "name": "Donut_DrizzleMat_0"
    }
  ],
  "samplers": [
    {
      "magFilter": 9729,
      "minFilter": 9987,
      "wrapS": 10497,
      "wrapT": 10497
    }
  ],
  "scene": 0,
  "scenes": [
    {
      "name": "Sketchfab_Scene",
      "nodes": [
        0
      ]
    }
  ],
  "textures": [
    {
      "sampler": 0,
      "source": 0
    },
    {
      "sampler": 0,
      "source": 1
    },
    {
      "sampler": 0,
      "source": 2
    },
    {
      "sampler": 0,
      "source": 3
    },
    {
      "sampler": 0,
      "source": 4
    },
    {
      "sampler": 0,
      "source": 5
    },
    {
      "sampler": 0,
      "source": 6
    }
  ]
}
