<svg class="svgDonut" width="353" height="364" viewBox="0 0 353 364" fill="none" xmlns="http://www.w3.org/2000/svg">
<circle cx="176.5" cy="190.5" r="173.5" fill="#D87B46"/>
<path class="donut-ring" d="M176.539 96C130.96 96 94 133.184 94 178.961C94 224.816 130.96 262 176.539 262C222.118 262 259 224.816 259 178.961C259 133.106 222.118 96 176.539 96ZM176.539 252.235C136.318 252.235 103.706 219.426 103.706 178.961C103.706 138.496 136.318 105.687 176.539 105.687C216.76 105.687 249.372 138.496 249.372 178.961C249.372 219.504 216.76 252.235 176.539 252.235Z" fill="#D1B58A"/>
<path class="donut-icing" d="M341.555 129.227L318.5 109.827C312.737 104.977 308.842 98.2497 307.518 90.8184L302.3 61.0932C299.574 45.683 286.332 34.4969 270.755 34.4969H240.612C233.057 34.4969 225.813 31.8373 220.049 26.9874L196.994 7.50953C185.077 -2.50318 167.708 -2.50318 155.869 7.50953L132.814 26.9874C127.05 31.8373 119.729 34.4969 112.252 34.4969H82.1086C66.5309 34.4969 53.2899 45.683 50.5638 61.0932L45.3452 90.8184C44.0211 98.2497 40.1267 104.977 34.3629 109.827L11.4637 129.227C-0.453247 139.239 -3.4909 156.37 4.29796 169.981L15.1245 188.833L15.9034 179.916C16.0591 177.882 17.8506 176.396 19.8757 176.552C21.9008 176.709 23.3807 178.508 23.2249 180.542L21.4334 200.645C23.5364 206.043 24.1595 212.066 23.147 217.776L17.9285 247.502C15.2024 262.834 23.9259 277.931 38.491 283.328L66.7646 293.654C70.0359 294.827 73.1515 296.627 75.7997 298.817L84.9905 298.269C87.0156 298.113 88.8071 299.677 88.885 301.711C89.0407 303.745 87.483 305.544 85.4579 305.622L82.2644 305.779C82.7318 306.405 83.1212 307.109 83.5106 307.734L98.5431 333.939C106.332 347.472 122.611 353.417 137.176 348.02L148.703 343.796C148.625 343.405 148.625 343.013 148.625 342.544L152.286 317.982C152.598 315.948 154.467 314.54 156.414 314.853C158.439 315.166 159.841 317.043 159.53 318.999L156.259 340.901L165.294 337.616C172.382 335.035 180.092 335.035 187.18 337.616L215.532 347.942C230.097 353.261 246.454 347.316 254.165 333.861L269.197 307.656C273.014 301.164 278.933 296.079 286.021 293.576L314.294 283.25C328.86 277.931 337.583 262.834 334.857 247.423L329.639 217.698C328.314 210.267 329.716 202.601 333.455 196.03L337.817 188.521L324.031 201.662C322.551 203.07 320.214 202.992 318.812 201.506C317.41 200.019 317.488 197.673 318.968 196.265L336.96 179.212C338.44 177.804 340.777 177.882 342.179 179.368C342.412 179.603 342.568 179.838 342.724 180.151L348.643 169.903C356.51 156.37 353.472 139.239 341.555 129.227ZM305.96 126.802C306.116 124.768 307.83 123.203 309.855 123.36C311.88 123.516 313.438 125.237 313.282 127.271L311.802 152.068C311.646 154.102 309.933 155.666 307.908 155.51C305.883 155.353 304.325 153.633 304.481 151.599L305.96 126.802ZM275.194 65.3173C276.441 63.7528 278.777 63.4399 280.335 64.6915L299.807 80.0234C301.365 81.275 301.677 83.6218 300.43 85.1863C299.184 86.7507 296.847 87.0636 295.29 85.812L275.818 70.4801C274.26 69.3067 273.948 66.96 275.194 65.3173ZM245.052 97.0763L269.742 95.9812C271.767 95.903 273.481 97.4675 273.559 99.5013C273.637 101.535 272.079 103.256 270.054 103.334L245.363 104.429C243.338 104.508 241.624 102.943 241.547 100.909C241.391 98.8755 243.026 97.1546 245.052 97.0763ZM260.473 220.123L258.994 244.92C258.838 246.954 257.124 248.519 255.099 248.362C253.074 248.206 251.516 246.485 251.672 244.451L252.763 225.208L253.074 219.654C253.23 217.62 254.943 216.055 256.969 216.212C257.124 216.212 257.28 216.29 257.514 216.29C259.305 216.681 260.629 218.324 260.473 220.123ZM176.51 261.66C130.789 261.66 93.7141 224.425 93.7141 178.508C93.7141 132.59 130.789 95.4336 176.51 95.4336C222.23 95.4336 259.227 132.668 259.227 178.508C259.227 224.425 222.23 261.66 176.51 261.66ZM213.039 33.0106C214.286 31.4462 216.622 31.1333 218.18 32.3849L237.652 47.7168C239.21 48.9684 239.521 51.3151 238.275 52.8796C237.029 54.4441 234.692 54.757 233.135 53.5054L213.662 38.1734C212.105 37.0001 211.793 34.6534 213.039 33.0106ZM185.467 63.5963C185.623 61.5625 187.336 59.998 189.361 60.1545C191.386 60.3109 192.944 62.0319 192.788 64.0657L191.308 88.8628C191.231 89.3321 191.153 89.645 190.997 90.0362C190.374 91.4442 188.972 92.3829 187.414 92.3047C185.623 92.2264 184.298 90.8966 183.987 89.1757C183.909 88.941 183.909 88.6281 183.909 88.3934L185.467 63.5963ZM140.369 29.4123C141.382 27.6132 143.641 27.0656 145.432 28.0825L166.851 40.5202C168.643 41.5371 169.188 43.8056 168.176 45.6048C167.163 47.4039 164.904 47.9515 163.113 46.9346L141.771 34.4969C139.98 33.4018 139.435 31.1333 140.369 29.4123ZM130.166 66.7253L154.467 62.1883C156.414 61.7972 158.362 63.127 158.751 65.0826C159.14 67.0382 157.816 68.9938 155.869 69.3849L131.49 73.9219C129.543 74.3131 127.596 72.9833 127.206 71.0277C126.817 68.9938 128.141 67.0382 130.166 66.7253ZM32.8052 136.893L34.9861 112.174C35.1418 110.14 36.9333 108.654 38.9584 108.81C40.9835 108.966 42.4634 110.766 42.3076 112.799L40.1267 137.518C39.9709 139.552 38.1795 141.038 36.1544 140.882C34.0514 140.725 32.5715 138.926 32.8052 136.893ZM63.0259 262.13C61.7018 263.694 59.4431 263.929 57.8853 262.599L38.8805 246.719C37.3227 245.39 37.0891 243.121 38.4132 241.557C39.7373 239.992 41.996 239.757 43.5538 241.087L62.5586 256.967C64.1164 258.218 64.3501 260.565 63.0259 262.13ZM68.7897 181.324L51.109 198.69C49.6291 200.098 47.2924 200.098 45.8905 198.611C44.4885 197.125 44.4885 194.778 45.9683 193.37L63.6491 176.005C65.1289 174.597 67.4656 174.597 68.8676 176.083C70.1917 177.569 70.1917 179.916 68.7897 181.324ZM71.4379 66.8818C71.0485 64.9262 72.3726 62.9705 74.3198 62.5794L98.621 58.0424C100.568 57.6513 102.515 58.9811 102.905 60.9367C103.294 62.8923 101.97 64.8479 100.023 65.2391L75.7218 69.7761C73.6967 70.1672 71.8274 68.8374 71.4379 66.8818ZM75.3323 115.146C73.7746 113.816 73.5409 111.548 74.865 109.983C76.1891 108.419 78.4479 108.184 80.0057 109.514L99.0105 125.394C100.568 126.723 100.802 128.992 99.4778 130.556C98.1537 132.121 95.8949 132.356 94.3372 131.026L75.3323 115.146ZM94.0256 252.899C93.8698 254.933 92.0784 256.419 90.0533 256.263C88.0282 256.106 86.5483 254.307 86.7041 252.273L88.885 227.554C89.0407 225.521 90.8322 224.034 92.8573 224.191C94.8824 224.347 96.3623 226.146 96.2065 228.18L94.0256 252.899ZM122.689 296.626L105.008 313.992C103.528 315.4 101.191 315.4 99.7893 313.914C98.3874 312.428 98.3874 310.081 99.8672 308.673L117.548 291.307C119.028 289.899 121.364 289.899 122.766 291.385C124.168 292.872 124.168 295.218 122.689 296.626ZM166.618 286.927C165.294 288.491 163.035 288.726 161.477 287.396L142.472 271.516C140.915 270.187 140.681 267.918 142.005 266.354C143.329 264.789 145.588 264.555 147.146 265.884L166.15 281.764C167.708 283.015 167.942 285.362 166.618 286.927ZM225.657 340.98C224.645 342.779 222.386 343.326 220.595 342.309L199.253 329.872C197.462 328.855 196.916 326.586 197.929 324.787C198.942 323.066 201.2 322.441 202.992 323.457L224.333 335.895C226.125 336.912 226.748 339.259 225.657 340.98ZM231.265 258.531L222.152 281.607C221.373 283.485 219.27 284.423 217.401 283.641C215.532 282.859 214.597 280.747 215.376 278.87L224.489 255.793C225.268 253.916 227.371 252.977 229.24 253.76C231.109 254.542 232.044 256.654 231.265 258.531ZM267.328 298.347L243.26 303.98C241.313 304.449 239.288 303.197 238.82 301.242C238.353 299.286 239.599 297.252 241.547 296.783L265.614 291.151C267.561 290.681 269.586 291.933 270.054 293.889C270.599 295.844 269.353 297.878 267.328 298.347ZM263.745 159.108L260.629 156.605C259.071 155.353 258.76 153.007 260.006 151.442C260.396 150.973 260.863 150.66 261.408 150.347C262.576 149.8 264.056 149.878 265.225 150.816L284.697 166.148C286.255 167.4 286.566 169.747 285.32 171.311C284.074 172.876 281.737 173.189 280.179 171.937L263.745 159.108ZM308.764 278.557C307.596 280.278 305.337 280.669 303.624 279.495L283.295 265.415C281.581 264.242 281.192 261.973 282.36 260.252C283.528 258.531 285.787 258.14 287.501 259.314L307.83 273.394C309.465 274.567 309.855 276.836 308.764 278.557ZM320.448 217.855C320.526 219.888 318.968 221.609 316.943 221.688L292.252 222.783C290.227 222.861 288.513 221.297 288.435 219.263C288.358 217.229 289.915 215.508 291.94 215.43L316.631 214.335C318.656 214.256 320.37 215.821 320.448 217.855Z" fill="#FF6DA2"/>
<path class="donut-sprinkle-blue" d="M98.5886 57.8172L74.2449 62.3549C72.2943 62.7461 70.9679 64.7021 71.358 66.658C71.7481 68.6139 73.6988 69.944 75.6494 69.5528L99.9931 65.015C101.944 64.6238 103.27 62.6679 102.88 60.712C102.49 58.756 100.617 57.426 98.5886 57.8172Z" fill="#00A6FF"/>
<path class="donut-sprinkle-blue" d="M63.4776 175.799L45.766 193.168C44.2835 194.576 44.2835 196.923 45.6879 198.41C47.0924 199.896 49.4331 199.896 50.9156 198.488L68.6272 181.119C70.1097 179.711 70.1097 177.364 68.7052 175.877C67.3008 174.391 64.96 174.391 63.4776 175.799Z" fill="#00A6FF"/>
<path class="donut-sprinkle-blue" d="M147.198 265.694C145.638 264.364 143.297 264.599 142.048 266.164C140.722 267.728 140.956 270.075 142.517 271.327L161.555 287.209C163.115 288.539 165.456 288.305 166.704 286.74C168.031 285.175 167.797 282.828 166.236 281.576L147.198 265.694Z" fill="#00A6FF"/>
<path class="donut-sprinkle-blue" d="M270.009 95.7623L245.275 96.8577C243.247 96.9359 241.686 98.6571 241.764 100.691C241.842 102.725 243.559 104.29 245.587 104.212L270.321 103.117C272.35 103.038 273.91 101.317 273.832 99.283C273.754 97.2488 272.038 95.6841 270.009 95.7623Z" fill="#00A6FF"/>
<path class="donut-sprinkle-blue" d="M316.98 214.136L292.246 215.231C290.217 215.309 288.657 217.03 288.735 219.065C288.813 221.099 290.529 222.663 292.558 222.585L317.292 221.49C319.321 221.412 320.881 219.69 320.803 217.656C320.725 215.622 319.008 214.057 316.98 214.136Z" fill="#00A6FF"/>
<path class="donut-sprinkle-yellow" d="M166.938 40.2137L145.482 27.774C143.687 26.7569 141.502 27.3046 140.41 29.104C139.396 30.9035 139.942 33.0941 141.736 34.1894L163.193 46.6292C164.988 47.6463 167.173 47.0986 168.265 45.2992C169.279 43.4997 168.655 41.1526 166.938 40.2137Z" fill="#F5DE81"/>
<path class="donut-sprinkle-yellow" d="M39.9922 137.385L42.1769 112.662C42.3329 110.628 40.8505 108.828 38.8218 108.672C36.7932 108.515 34.9986 110.002 34.8426 112.036L32.6579 136.759C32.5018 138.793 33.9843 140.592 36.0129 140.749C37.9636 140.905 39.7581 139.341 39.9922 137.385Z" fill="#F5DE81"/>
<path class="donut-sprinkle-yellow" d="M117.627 291.121L99.9152 308.49C98.4327 309.898 98.4327 312.245 99.8372 313.732C101.242 315.218 103.582 315.218 105.065 313.81L122.776 296.441C124.259 295.033 124.259 292.686 122.854 291.2C121.372 289.713 119.031 289.713 117.627 291.121Z" fill="#F5DE81"/>
<path class="donut-sprinkle-yellow" d="M43.4252 240.815C41.8647 239.485 39.524 239.719 38.2756 241.284C37.0272 242.849 37.1832 245.196 38.7437 246.448L57.7817 262.33C59.3422 263.66 61.683 263.425 62.9314 261.86C64.1798 260.296 64.0237 257.949 62.4632 256.697L43.4252 240.815Z" fill="#F5DE81"/>
<path class="donut-sprinkle-yellow" d="M310.192 123.145C308.163 122.989 306.368 124.554 306.29 126.588L304.808 151.389C304.652 153.423 306.212 155.223 308.241 155.301C310.27 155.458 312.064 153.893 312.142 151.859L313.625 127.057C313.781 125.023 312.22 123.224 310.192 123.145Z" fill="#F5DE81"/>
<path class="donut-sprinkle-yellow" d="M257.837 216.17C257.681 216.092 257.525 216.092 257.291 216.092C255.262 215.935 253.468 217.5 253.39 219.534L253.078 225.089L251.985 244.335C251.829 246.369 253.39 248.169 255.418 248.247C257.447 248.404 259.242 246.839 259.32 244.805L260.802 220.003C260.88 218.126 259.554 216.483 257.837 216.17Z" fill="#F5DE81"/>
<path class="donut-sprinkle-yellow" d="M224.599 335.795L203.22 323.277C201.425 322.26 199.241 322.807 198.148 324.607C197.134 326.406 197.68 328.597 199.475 329.692L220.853 342.132C222.648 343.149 224.833 342.602 225.925 340.802C226.939 339.081 226.315 336.734 224.599 335.795Z" fill="#F5DE81"/>
<path class="donut-sprinkle-white" d="M158.746 64.8586C158.356 62.9026 156.405 61.5726 154.455 61.9638L130.111 66.5015C128.16 66.8927 126.834 68.8487 127.224 70.8046C127.614 72.7605 129.565 74.0906 131.515 73.6994L155.859 69.1616C157.81 68.7704 159.136 66.8145 158.746 64.8586Z" fill="white"/>
<path class="donut-sprinkle-white" d="M19.7839 176.269C17.7552 176.112 15.9607 177.599 15.8046 179.633L15.0244 188.552L13.6199 204.356C13.4639 206.39 14.9463 208.19 16.975 208.346C19.0036 208.503 20.7982 207.016 20.9542 204.982L21.3444 200.366L23.1389 180.259C23.295 178.225 21.7345 176.425 19.7839 176.269Z" fill="white"/>
<path class="donut-sprinkle-white" d="M79.9409 109.298C78.3804 107.967 76.0397 108.202 74.7913 109.767C73.4648 111.332 73.6989 113.679 75.2594 114.931L94.2974 130.813C95.8579 132.143 98.1987 131.908 99.4471 130.343C100.773 128.779 100.539 126.432 98.9789 125.18L79.9409 109.298Z" fill="white"/>
<path class="donut-sprinkle-white" d="M156.795 314.827C154.767 314.514 152.894 315.923 152.66 317.957L148.993 342.523C148.915 342.993 148.915 343.384 149.071 343.775C149.383 345.262 150.553 346.514 152.114 346.748C154.142 347.061 156.015 345.653 156.249 343.619L156.639 340.959L159.916 319.052C160.15 317.018 158.746 315.14 156.795 314.827Z" fill="white"/>
<path class="donut-sprinkle-white" d="M85.0125 298.085L75.8056 298.632L60.2787 299.571C58.25 299.728 56.6895 301.449 56.8456 303.483C57.0016 305.517 58.7182 307.082 60.7468 306.925L82.2816 305.595L85.4806 305.439C87.5093 305.282 89.0698 303.561 88.9137 301.527C88.7577 299.493 86.9631 297.928 85.0125 298.085Z" fill="white"/>
<path class="donut-sprinkle-white" d="M92.815 223.915C90.7864 223.759 88.9918 225.245 88.8358 227.28L86.6511 252.003C86.495 254.037 87.9775 255.836 90.0062 255.993C92.0348 256.149 93.8294 254.663 93.9854 252.628L96.1701 227.905C96.4042 225.95 94.8437 224.15 92.815 223.915Z" fill="white"/>
<path class="donut-sprinkle-white" d="M276.095 70.3352L295.601 85.6697C297.162 86.9215 299.502 86.6086 300.751 85.0438C301.999 83.4791 301.687 81.132 300.127 79.8802L280.62 64.5456C279.06 63.2938 276.719 63.6068 275.471 65.1715C274.222 66.7363 274.534 69.0834 276.095 70.3352Z" fill="white"/>
<path class="donut-sprinkle-white" d="M189.41 59.9296C187.381 59.7731 185.586 61.3379 185.508 63.3721L184.026 88.1733C184.026 88.408 184.026 88.721 184.104 88.9557C184.338 90.6769 185.82 92.007 187.537 92.0852C189.097 92.1634 190.58 91.2246 191.126 89.8163C191.282 89.4251 191.36 89.0339 191.438 88.6428L192.921 63.8415C192.999 61.7291 191.438 60.0079 189.41 59.9296Z" fill="white"/>
<path class="donut-sprinkle-white" d="M237.863 47.4899L218.357 32.1554C216.796 30.9036 214.455 31.2165 213.207 32.7812C211.959 34.346 212.271 36.6931 213.831 37.9449L233.337 53.2795C234.898 54.5313 237.239 54.2183 238.487 52.6536C239.813 51.0888 239.501 48.7417 237.863 47.4899Z" fill="white"/>
<path class="donut-sprinkle-white" d="M308.163 273.205L287.799 259.122C286.082 257.949 283.819 258.418 282.649 260.061C281.479 261.782 281.947 264.051 283.585 265.225L303.95 279.308C305.666 280.481 307.929 280.012 309.099 278.369C310.192 276.647 309.802 274.379 308.163 273.205Z" fill="white"/>
<path class="donut-sprinkle-white" d="M343.196 179.946C343.04 179.711 342.884 179.398 342.65 179.164C341.246 177.677 338.905 177.599 337.422 179.007L319.477 196.141C317.994 197.549 317.916 199.897 319.321 201.383C320.725 202.87 323.066 202.948 324.548 201.54L338.359 188.396L342.494 184.406C343.742 183.232 343.976 181.354 343.196 179.946Z" fill="white"/>
<path class="donut-sprinkle-white" d="M285.458 171.105C286.706 169.54 286.394 167.193 284.834 165.941L265.328 150.607C264.235 149.746 262.753 149.59 261.504 150.137C260.958 150.372 260.49 150.763 260.1 151.233C258.852 152.798 259.164 155.145 260.724 156.396L263.845 158.9L280.152 171.731C281.869 172.983 284.21 172.67 285.458 171.105Z" fill="white"/>
<path class="donut-sprinkle-white" d="M265.952 290.965L241.842 296.598C239.892 297.067 238.643 299.023 239.111 301.057C239.579 303.013 241.53 304.265 243.559 303.796L267.668 298.163C269.619 297.693 270.867 295.737 270.399 293.703C269.931 291.747 267.902 290.495 265.952 290.965Z" fill="white"/>
<path class="donut-sprinkle-white" d="M229.436 253.567C227.564 252.785 225.379 253.724 224.677 255.602L215.548 278.682C214.768 280.559 215.704 282.75 217.576 283.454C219.449 284.236 221.634 283.298 222.336 281.42L231.465 258.34C232.245 256.462 231.309 254.35 229.436 253.567Z" fill="white"/>
<!-- <circle class="donut-img" cx="175" cy="180" r="87" fill="#D9D9D9"/> -->
</svg>
